<?xml version="1.0" encoding="UTF-8" standalone="no"?>
<svg width="128" height="128" version="1.1" id="svg17" xml:space="preserve" xmlns="http://www.w3.org/2000/svg" xmlns:svg="http://www.w3.org/2000/svg"><defs id="defs17" /><g id="g32" transform="matrix(0.66492814,-0.66496493,0.66492814,0.66496493,-52.40681,33.131791)" style="display:inline;opacity:1;stroke-width:1.27293"><path style="opacity:1;fill:none;fill-opacity:1;stroke:#323232;stroke-width:1.53388;stroke-dasharray:none;stroke-opacity:1" d="m 113.72093,101.27389 3.06367,-9.380294 h 1.69851 v 9.380294 z" id="path17" /><path style="opacity:1;fill:#ffffff;fill-opacity:1;stroke:#323232;stroke-width:3.0194;stroke-dasharray:none;stroke-opacity:1" d="m -9.3648817,100.44334 38.2963887,0.83055 h 88.967763 v 10.17248 c 0.0154,0.8797 -0.42006,1.34611 -1.30638,1.39924 l -46.455904,2.56161 -13.947696,3.66625 H 36.582814 c -0.02524,-3.24689 -1.675208,-4.98784 -5.499377,-5.18057 l -39.5118307,9.52428 c -0.9954462,0.18436 -1.8646873,-0.10287 -2.0099883,-1.1406 l -0.968238,-19.91849 c -0.02608,-1.15834 1.145998,-1.96927 2.0417383,-1.91475 z" id="path18" /><rect style="opacity:1;fill:#ffffff;fill-opacity:1;stroke:#323232;stroke-width:3.0194;stroke-dasharray:none;stroke-opacity:1" id="rect19" width="12.592777" height="34.590286" x="48.632381" y="118.04308" transform="rotate(-3.9841915)" /><path style="opacity:1;fill:#ffffff;fill-opacity:1;stroke:#323232;stroke-width:3.0194;stroke-dasharray:none;stroke-opacity:1" d="m 36.582814,119.07347 v 1.00529 c 0,3.21744 -2.28903,6.20524 -4.459208,8.92288 -0.975219,1.73063 -1.759206,3.01862 -1.659083,4.59458 0.08096,0.93254 0.235875,1.75667 0.966631,2.12565 l 6.326496,2.07103 c 2.478256,0.87437 2.777987,0.57978 0.899248,-0.88375 0.200015,-4.72701 1.462803,-8.06019 4.850863,-11.93705 l 0.479036,-3.46597 1.127144,-2.43266 z" id="path19" /><path style="opacity:1;fill:#323232;fill-opacity:1;stroke:none;stroke-width:3.0194;stroke-dasharray:none;stroke-opacity:1" d="M 44.663083,125.50749 H 57.491739 V 124.3736 H 46.266501 l -1.235368,-3.10834 -1.523372,3.70684 z" id="path20" /><path style="opacity:1;fill:#323232;fill-opacity:1;stroke:none;stroke-width:3.0194;stroke-dasharray:none;stroke-opacity:1" d="m 48.680301,119.25663 c -0.48983,1.96165 -0.196447,2.70616 0.549483,4.6165 -1.629663,-0.2708 -2.437449,-1.79084 -2.22611,-4.6165 z" id="path21" /><path d="m 120.44184,108.12432 h 29.48158 c 0.22986,0 0.41509,0.0888 0.41552,0.3394 0.16798,0.72064 0.17854,2.20051 0,2.71522 0,0.25056 -0.18523,0.33918 -0.41552,0.33918 h -29.48158 l -0.20722,-0.33962 -2.1e-4,-2.71478 0.20722,-0.33961 z" style="opacity:1;fill:#323232;fill-opacity:1;stroke-width:0.274482" id="path1-3" /><path style="opacity:1;fill:none;fill-opacity:1;stroke:#323232;stroke-width:3.0194;stroke-dasharray:none;stroke-opacity:1" d="m 33.633873,101.27389 4.303861,-13.443255 h 2.789539 v 13.443255 z" id="path23" /><path style="opacity:1;fill:none;fill-opacity:1;stroke:#323232;stroke-width:3.0194;stroke-dasharray:none;stroke-opacity:1" d="m 79.182685,95.690263 c 0,0 0.502272,4.165557 3.507228,5.583627 h -9.723537 c 1.36651,-2.071233 2.400405,-5.115971 6.216309,-5.583627 z" id="path24" /><path style="opacity:1;fill:#7e7e7e;fill-opacity:1;stroke:none;stroke-width:3.0194;stroke-dasharray:none;stroke-opacity:1" d="m 79.413188,105.10452 0.204787,5.59208 a 0.91836254,0.91836254 42.451247 0 0 0.965814,0.8835 l 29.004371,-1.52017 a 1.514815,1.514815 133.49989 0 0 1.43553,-1.51274 v -3.49283 a 0.91197267,0.91197267 45.180332 0 0 -0.90623,-0.91195 l -29.590179,-0.18627 a 1.1078611,1.1078611 134.13169 0 0 -1.114093,1.14838 z" id="path25" transform="translate(-1.125,0.5)" /><circle style="opacity:1;fill:#323232;fill-opacity:1;stroke:none;stroke-width:3.0194;stroke-dasharray:none;stroke-opacity:1" id="path26" cx="117.53578" cy="107.21233" r="1.549823" /><rect width="17.281889" height="5.1408744" x="51.513863" y="106.22549" rx="0.86361581" ry="0.73414183" fill="#7e7e7e" id="rect26-5" style="opacity:1;stroke-width:0.263602" /><path style="opacity:1;fill:none;fill-opacity:1;stroke:#2e2e2e;stroke-width:2.02934;stroke-linecap:round;stroke-dasharray:none;stroke-opacity:1" d="m 72.409066,107.86075 0.175287,0.055 h 4.399703" id="path28" /><path style="opacity:1;fill:#323232;fill-opacity:1;stroke:#323232;stroke-width:2.04306;stroke-linecap:round;stroke-dasharray:none;stroke-opacity:1" d="m -10.178347,110.50758 3.6249999,-0.375" id="path29" /><path style="opacity:1;fill:#323232;fill-opacity:1;stroke:none;stroke-width:2.04306;stroke-linecap:round;stroke-dasharray:none;stroke-opacity:1" d="m -8.8959731,100.0103 1.4393111,-1.385038 c 0.4657213,-0.385692 0.8897009,-0.630981 1.0355626,0.05922 l 0.2043981,1.347918 z" id="path30" /><path style="display:inline;opacity:1;fill:#323232;fill-opacity:1;stroke:#323232;stroke-width:2.04306;stroke-linecap:round;stroke-dasharray:none;stroke-opacity:1" d="m 38.922582,137.88705 19.193111,3.84397" id="path31" /><path style="opacity:1;fill:#323232;fill-opacity:1;stroke:none;stroke-width:2.04306;stroke-linecap:round;stroke-dasharray:none;stroke-opacity:1" id="path32" d="m 122.1097,106.68741 -3.33906,0 1.66953,-2.8917 z" transform="matrix(0,0.6943385,-0.6943385,0,192.85738,20.877046)" /></g></svg>
