<?xml version="1.0" encoding="UTF-8" standalone="no"?>
<svg width="128" height="128" version="1.1" id="svg7" xml:space="preserve" xmlns="http://www.w3.org/2000/svg" xmlns:svg="http://www.w3.org/2000/svg"><defs id="defs7" /><g id="g108" transform="rotate(-45,-104.93416,127.19706)"><path d="m 50.558549,207.15763 c 0,0 -3.097815,-1.71425 -0.644675,-5.64406 l -1.552177,0.75084 c -1.460516,2.97972 0.85065,5.00386 1.552555,5.07949 0.441932,0.0223 0.644537,-0.18627 0.644537,-0.18627 z" fill="#323232" id="path1" style="stroke-width:0.24005" /><path d="m 71.90641,194.87321 -1.42e-4,8.1617 10.562233,-1.92022 c 0,0 1.118158,-0.29284 1.440317,-0.96017 l 9.2e-5,-5.2811 z" id="path30" style="fill:#ffffff;fill-opacity:1;stroke:#323232;stroke-width:2.774;stroke-dasharray:none;stroke-opacity:1" /><path d="m 36.850877,198.95752 -7.5e-5,4.33315 5.289261,9e-5 1.440217,4.80102 2.4005,5e-5 6.9e-5,-3.95459 3.360733,-1.92034 7.836192,1.4e-4 -8.5e-5,4.90662 10.887758,-2.88041 1.79e-4,-10.2571 -4.3209,-7e-5 -1.440292,-0.48013 -23.0448,-4e-4 -2.360925,1.92036 -6.2e-5,3.53162 z" id="path3" style="fill:#ffffff;fill-opacity:1;stroke:#323232;stroke-width:2.774;stroke-dasharray:none;stroke-opacity:1" /><path style="fill:#323232;fill-opacity:1;stroke-width:0.24005" d="m 37.733833,196.00132 17.849158,3.2e-4 -2.3e-5,1.27178 -17.849157,-3.1e-4 z" id="path28" /><path style="fill:#323232;fill-opacity:1;stroke-width:0.24005" d="m 45.964459,207.95236 9.912384,1.7e-4 -1.7e-5,0.96524 -9.912384,-1.7e-4 z" id="path27" /><path style="fill:#323232;fill-opacity:1;stroke-width:0.24005" d="m 133.85279,192.95389 3.8408,6e-5 1e-5,-0.9602 -0.9602,-1e-5 2e-5,-0.9602 c 1e-5,-0.4801 -0.48009,-0.48011 -0.48009,-0.48011 l -1.9204,-3e-5 c -0.4801,-1e-5 -0.48011,0.48009 -0.48011,0.48009 z" id="path26" /><path style="fill:#323232;fill-opacity:1;stroke-width:0.24005" d="m 87.749744,192.95308 8.641798,1.5e-4 2e-5,-0.9602 c 0,0 -0.960176,-1.44031 -1.440276,-1.44032 l -0.48034,-1e-5 c -1.4403,-3e-5 -2.400285,1.44026 -2.400285,1.44026 l -2.8806,-5e-5 -0.480092,-0.48011 -0.9602,-2e-5 z" id="path25" /><path style="fill:#323232;fill-opacity:1;stroke-width:0.24005" d="m 137.71638,193.43405 c 0.92393,1.44032 0.92385,5.76122 -1.2e-4,7.2015 l -49.96665,-8.7e-4 -0.480092,-0.48011 -0.9602,-1e-5 1.09e-4,-6.2413 0.9602,1e-5 0.480108,-0.48009 z" id="path4" /><path fill="none" stroke="#323232" stroke-width="1.9204" stroke-linecap="round" stroke-miterlimit="10" d="m 55.830498,195.10985 11.499115,2.1e-4 -7e-5,4.01459 -11.499115,-2e-4 z" id="path5" /><circle cx="45.114536" cy="200.77599" r="1.1181529" fill="#323232" id="circle5" transform="rotate(0.001)" style="stroke-width:0.24005" /><path style="fill:#323232;fill-opacity:1;stroke-width:0.24005" d="m 44.992875,200.01917 2.346033,-1.40521 5.170928,-0.61036 c 0.47193,0.4489 0.230185,1.29747 0.230185,1.29747 l -5.066025,0.57003 -1.834963,1.18246 z" id="path6" /><path style="fill:#ffffff;fill-opacity:1;stroke:#323232;stroke-width:2.774;stroke-linecap:butt;stroke-linejoin:round;stroke-dasharray:none;stroke-opacity:1;paint-order:fill markers stroke" d="m 36.850802,203.29067 v 2.58942 c -2.349414,3.94709 -2.60822,8.13758 -3.069028,12.57286 2.586119,1.35257 5.657007,2.39718 8.543698,1.04461 -0.221134,-0.21341 -0.658718,-0.51395 -0.808838,-0.78323 -1.735413,-3.11289 1.053466,-9.57934 3.263896,-10.62253 v -4.70237 z" id="path22" /><path d="m 50.558549,207.15763 c 0,0 -3.097815,-1.71425 -0.644675,-5.64406 l -1.552177,0.75084 c -1.460516,2.97972 0.85065,5.00386 1.552555,5.07949 0.441932,0.0223 0.644537,-0.18627 0.644537,-0.18627 z" fill="#323232" id="path86" style="stroke-width:0.24005" /><path d="m 71.90641,194.87321 -1.42e-4,8.1617 10.562233,-1.92022 c 0,0 1.118158,-0.29284 1.440317,-0.96017 l 9.2e-5,-5.2811 z" id="path87" style="fill:#ffffff;fill-opacity:1;stroke:#323232;stroke-width:2.774;stroke-dasharray:none;stroke-opacity:1" /><path d="m 36.850802,203.29067 5.289261,9e-5 1.440217,4.80102 2.4005,5e-5 6.9e-5,-3.95459 3.360733,-1.92034 7.836192,1.4e-4 -8.5e-5,4.90662 10.887758,-2.88041 1.79e-4,-10.2571 -4.3209,-7e-5 -1.440292,-0.48013 -23.0448,-4e-4 -2.408832,1.92036 z" id="path88" style="fill:#ffffff;fill-opacity:1;stroke:#323232;stroke-width:2.774;stroke-dasharray:none;stroke-opacity:1" /><path style="fill:#323232;fill-opacity:1;stroke-width:0.24005" d="m 37.733833,196.00132 17.849158,3.2e-4 -2.3e-5,1.27178 -17.849157,-3.1e-4 z" id="path89" /><path style="fill:#323232;fill-opacity:1;stroke-width:0.24005" d="m 45.964459,207.95236 9.912384,1.7e-4 -1.7e-5,0.96524 -9.912384,-1.7e-4 z" id="path90" /><path style="fill:#323232;fill-opacity:1;stroke-width:0.24005" d="m 133.85279,192.95389 3.8408,6e-5 1e-5,-0.9602 -0.9602,-1e-5 2e-5,-0.9602 c 1e-5,-0.4801 -0.48009,-0.48011 -0.48009,-0.48011 l -1.9204,-3e-5 c -0.4801,-1e-5 -0.48011,0.48009 -0.48011,0.48009 z" id="path91" /><path style="fill:#323232;fill-opacity:1;stroke-width:0.24005" d="m 87.749744,192.95308 8.641798,1.5e-4 2e-5,-0.9602 c 0,0 -0.960176,-1.44031 -1.440276,-1.44032 l -0.48034,-1e-5 c -1.4403,-3e-5 -2.400285,1.44026 -2.400285,1.44026 l -2.8806,-5e-5 -0.480092,-0.48011 -0.9602,-2e-5 z" id="path92" /><path style="fill:#323232;fill-opacity:1;stroke-width:0.24005" d="m 137.71638,193.43405 c 0.92393,1.44032 0.92385,5.76122 -1.2e-4,7.2015 l -49.96665,-8.7e-4 -0.480092,-0.48011 -0.9602,-1e-5 1.09e-4,-6.2413 0.9602,1e-5 0.480108,-0.48009 z" id="path93" /><path fill="none" stroke="#323232" stroke-width="1.9204" stroke-linecap="round" stroke-miterlimit="10" d="m 55.830498,195.10985 11.499115,2.1e-4 -7e-5,4.01459 -11.499115,-2e-4 z" id="path94" /><circle cx="45.114536" cy="200.77599" r="1.1181529" fill="#323232" id="circle94" transform="rotate(0.001)" style="stroke-width:0.24005" /><path style="fill:#323232;fill-opacity:1;stroke-width:0.24005" d="m 44.992875,200.01917 2.346033,-1.40521 5.170928,-0.61036 c 0.47193,0.4489 0.230185,1.29747 0.230185,1.29747 l -5.066025,0.57003 -1.834963,1.18246 z" id="path95" /><path style="fill:#ffffff;fill-opacity:1;stroke:#323232;stroke-width:2.774;stroke-linecap:butt;stroke-linejoin:round;stroke-dasharray:none;stroke-opacity:1;paint-order:fill markers stroke" d="m 36.850802,203.29067 v 2.58942 c -2.349414,3.94709 -2.60822,8.13758 -3.069028,12.57286 2.586119,1.35257 5.657007,2.39718 8.543698,1.04461 -0.221134,-0.21341 -0.658718,-0.51395 -0.808838,-0.78323 -1.735413,-3.11289 1.053466,-9.57934 3.263896,-10.62253 v -4.70237 z" id="path98" /><path style="fill:#ffffff;fill-opacity:1;stroke:#323232;stroke-width:2.774;stroke-linecap:butt;stroke-linejoin:miter;stroke-dasharray:none;stroke-opacity:1;paint-order:fill markers stroke" d="m 68.49895,233.53995 c 0.179069,0.59668 0.07983,1.67917 1.09963,1.62262 3.610615,-0.73469 4.708675,-2.44892 7.458338,-3.97204 0.60613,-0.33457 0.302086,-0.8243 -0.93964,-0.97594 -4.662484,-7.9332 -6.706033,-13.03201 -8.548723,-21.86158 l -7.951063,2.07676 c 1.554639,8.74125 5.259463,15.95361 8.881458,23.11018 z" id="path99" /><g id="g107" transform="translate(44.079821,-20.798585)"><path id="path104" style="fill:#f9f9f9;fill-opacity:1;stroke:#323232;stroke-width:2.774;stroke-dasharray:none;stroke-opacity:1;paint-order:normal" d="m -18.738725,216.97511 -7.62546,2.38754 h -30.220092 c -0.288914,-0.0129 -0.541148,0.63507 -0.574218,1.08594 -1.239096,7.2678 1.490696,12.95138 -0.01367,16.15625 -0.0884,0.18834 -0.393333,0.50881 0.140625,0.50781 h 6.636718 l 30.499183,-13.90347 h 8.594952 v -6.23407 z m -8.444971,5.76154 -25.226753,10.30178 c -0.556726,0.11269 -0.239451,-0.44875 -0.109375,-0.63086 1.246937,-1.7458 0.169551,-7.24809 0.199219,-8.75 v -0.92092 z" /><path style="fill:none;fill-opacity:1;stroke:#323232;stroke-width:2.774;stroke-dasharray:none;stroke-opacity:1;paint-order:stroke fill markers" d="m -34.648951,219.88802 2.11591,7.92288" id="path106" /></g><path style="fill:none;fill-opacity:1;stroke:#323232;stroke-width:2.663;stroke-dasharray:none;stroke-opacity:1;paint-order:stroke fill markers" d="m 10.095482,199.00779 2.11591,7.92288" id="path21" /><rect style="fill:#323232;fill-opacity:1;stroke:none;stroke-width:1.17716;stroke-linecap:butt;stroke-linejoin:miter;stroke-dasharray:none;stroke-opacity:1;paint-order:fill markers stroke" id="rect101" width="6.2913671" height="4.3274617" x="25.610571" y="197.13707" /></g></svg>
